# WaveFront *.obj file (generated by Cinema 4D)

mtllib ./TICKET_RATP_T+.mtl

v -191.88037109375 -1.60893857479095 199.04487609863281
v -191.88037109375 -0.11575631052256 199.04487609863281
v 267.9027099609375 -1.60893857479095 199.04487609863281
v 267.9027099609375 -0.11575631052256 199.04487609863281
v 267.9027099609375 -1.60893857479095 -7.46805334091187
v 267.9027099609375 -0.11575631052256 -7.46805334091187
v -191.88037109375 -1.60893857479095 -7.46805334091187
v -191.88037109375 -0.11575631052256 -7.46805334091187
# 8 vertices

vn 0 0 1
vn 1 0 0
vn 0 0 -1
vn -1 0 0
vn 0 1 0
vn 0 -1 0
# 6 normals

vt 0.0093492763117 0.05395305156708 0
vt 0.0093492763117 0.05718982219696 0
vt 0.99065071344376 0.05718982219696 0
vt 0.99065071344376 0.05395305156708 0
vt 0.0093492763117 0.00949585437775 0
vt 0.0093492763117 0.01273274421692 0
vt 0.45010370016098 0.01273274421692 0
vt 0.45010370016098 0.00949585437775 0
vt 0.0093492763117 0.03172445297241 0
vt 0.0093492763117 0.03496134281158 0
vt 0.99065071344376 0.03496134281158 0
vt 0.99065071344376 0.03172445297241 0
vt 0.46880227327347 0.00949585437775 0
vt 0.46880227327347 0.01273274421692 0
vt 0.9095566868782 0.01273274421692 0
vt 0.9095566868782 0.00949585437775 0
vt 0.0093492763117 0.54283875226974 0
vt 0.0093492763117 0.99050414562225 0
vt 0.99065071344376 0.99050414562225 0
vt 0.99065071344376 0.54283875226974 0
vt 0.0093492763117 0.07618165016174 0
vt 0.0093492763117 0.52384698390961 0
vt 0.99065071344376 0.52384698390961 0
vt 0.99065071344376 0.07618165016174 0
# 24 texture coordinates

o TICKET_RATP_T+
usemtl Cube
f 3/4/1 4/3/1 2/2/1 1/1/1
f 5/8/2 6/7/2 4/6/2 3/5/2
f 7/12/3 8/11/3 6/10/3 5/9/3
f 1/16/4 2/15/4 8/14/4 7/13/4
f 4/20/5 6/19/5 8/18/5 2/17/5
f 5/24/6 3/23/6 1/22/6 7/21/6

